<svg width="20" height="20" viewBox="0 0 20 20" fill="none" xmlns="http://www.w3.org/2000/svg">
<path fill-rule="evenodd" clip-rule="evenodd" d="M3.33333 6.66663C2.87309 6.66663 2.49999 7.03972 2.49999 7.49996V15.8333C2.49999 16.2935 2.87309 16.6666 3.33333 16.6666H16.6667C17.1269 16.6666 17.5 16.2935 17.5 15.8333V7.49996C17.5 7.03972 17.1269 6.66663 16.6667 6.66663H3.33333ZM0.833328 7.49996C0.833328 6.11925 1.95262 4.99996 3.33333 4.99996H16.6667C18.0474 4.99996 19.1667 6.11925 19.1667 7.49996V15.8333C19.1667 17.214 18.0474 18.3333 16.6667 18.3333H3.33333C1.95262 18.3333 0.833328 17.214 0.833328 15.8333V7.49996Z" fill="#15A2DA"/>
<path fill-rule="evenodd" clip-rule="evenodd" d="M6.56556 2.39886C7.0344 1.93002 7.67029 1.66663 8.33333 1.66663H11.6667C12.3297 1.66663 12.9656 1.93002 13.4344 2.39886C13.9033 2.8677 14.1667 3.50358 14.1667 4.16663V17.5C14.1667 17.9602 13.7936 18.3333 13.3333 18.3333C12.8731 18.3333 12.5 17.9602 12.5 17.5V4.16663C12.5 3.94561 12.4122 3.73365 12.2559 3.57737C12.0996 3.42109 11.8877 3.33329 11.6667 3.33329H8.33333C8.11231 3.33329 7.90035 3.42109 7.74407 3.57737C7.58779 3.73365 7.49999 3.94561 7.49999 4.16663V17.5C7.49999 17.9602 7.1269 18.3333 6.66666 18.3333C6.20642 18.3333 5.83333 17.9602 5.83333 17.5V4.16663C5.83333 3.50358 6.09672 2.8677 6.56556 2.39886Z" fill="#15A2DA"/>
</svg>
