<svg width="112" height="19" viewBox="0 0 112 19" fill="none" xmlns="http://www.w3.org/2000/svg">
<path d="M10.4454 0.772841C10.3599 0.605472 10.1879 0.500122 10 0.500122C9.8121 0.500122 9.64006 0.605472 9.55464 0.772841L6.97233 5.83289L1.36196 6.72518C1.17639 6.75469 1.02303 6.88575 0.964963 7.06446C0.906898 7.24317 0.953929 7.43934 1.08671 7.5723L5.10113 11.5919L4.21604 17.2034C4.18676 17.389 4.26402 17.5753 4.41604 17.6858C4.56806 17.7962 4.76916 17.8121 4.93664 17.7269L10 15.1511L15.0634 17.7269C15.2308 17.8121 15.4319 17.7962 15.584 17.6858C15.736 17.5753 15.8132 17.389 15.784 17.2034L14.8989 11.5919L18.9133 7.5723C19.0461 7.43934 19.0931 7.24317 19.035 7.06446C18.977 6.88575 18.8236 6.75469 18.638 6.72518L13.0277 5.83289L10.4454 0.772841Z" stroke="black" stroke-linejoin="round"/>
<path d="M33.4454 0.772841C33.3599 0.605472 33.1879 0.500122 33 0.500122C32.8121 0.500122 32.6401 0.605472 32.5546 0.772841L29.9723 5.83289L24.362 6.72518C24.1764 6.75469 24.023 6.88575 23.965 7.06446C23.9069 7.24317 23.9539 7.43934 24.0867 7.5723L28.1011 11.5919L27.216 17.2034C27.1868 17.389 27.264 17.5753 27.416 17.6858C27.5681 17.7962 27.7692 17.8121 27.9366 17.7269L33 15.1511L38.0634 17.7269C38.2308 17.8121 38.4319 17.7962 38.584 17.6858C38.736 17.5753 38.8132 17.389 38.784 17.2034L37.8989 11.5919L41.9133 7.5723C42.0461 7.43934 42.0931 7.24317 42.035 7.06446C41.977 6.88575 41.8236 6.75469 41.638 6.72518L36.0277 5.83289L33.4454 0.772841Z" stroke="black" stroke-linejoin="round"/>
<path d="M56.4454 0.772841C56.3599 0.605472 56.1879 0.500122 56 0.500122C55.8121 0.500122 55.6401 0.605472 55.5546 0.772841L52.9723 5.83289L47.362 6.72518C47.1764 6.75469 47.023 6.88575 46.965 7.06446C46.9069 7.24317 46.9539 7.43934 47.0867 7.5723L51.1011 11.5919L50.216 17.2034C50.1868 17.389 50.264 17.5753 50.416 17.6858C50.5681 17.7962 50.7692 17.8121 50.9366 17.7269L56 15.1511L61.0634 17.7269C61.2308 17.8121 61.4319 17.7962 61.584 17.6858C61.736 17.5753 61.8132 17.389 61.784 17.2034L60.8989 11.5919L64.9133 7.5723C65.0461 7.43934 65.0931 7.24317 65.035 7.06446C64.977 6.88575 64.8236 6.75469 64.638 6.72518L59.0277 5.83289L56.4454 0.772841Z" stroke="black" stroke-linejoin="round"/>
<path d="M79.4454 0.772841C79.3599 0.605472 79.1879 0.500122 79 0.500122C78.8121 0.500122 78.6401 0.605472 78.5546 0.772841L75.9723 5.83289L70.362 6.72518C70.1764 6.75469 70.023 6.88575 69.965 7.06446C69.9069 7.24317 69.9539 7.43934 70.0867 7.5723L74.1011 11.5919L73.216 17.2034C73.1868 17.389 73.264 17.5753 73.416 17.6858C73.5681 17.7962 73.7692 17.8121 73.9366 17.7269L79 15.1511L84.0634 17.7269C84.2308 17.8121 84.4319 17.7962 84.584 17.6858C84.736 17.5753 84.8132 17.389 84.784 17.2034L83.8989 11.5919L87.9133 7.5723C88.0461 7.43934 88.0931 7.24317 88.035 7.06446C87.977 6.88575 87.8236 6.75469 87.638 6.72518L82.0277 5.83289L79.4454 0.772841Z" stroke="black" stroke-linejoin="round"/>
<path d="M102.445 0.772841C102.36 0.605472 102.188 0.500122 102 0.500122C101.812 0.500122 101.64 0.605472 101.555 0.772841L98.9723 5.83289L93.362 6.72518C93.1764 6.75469 93.023 6.88575 92.965 7.06446C92.9069 7.24317 92.9539 7.43934 93.0867 7.5723L97.1011 11.5919L96.216 17.2034C96.1868 17.389 96.264 17.5753 96.416 17.6858C96.5681 17.7962 96.7692 17.8121 96.9366 17.7269L102 15.1511L107.063 17.7269C107.231 17.8121 107.432 17.7962 107.584 17.6858C107.736 17.5753 107.813 17.389 107.784 17.2034L106.899 11.5919L110.913 7.5723C111.046 7.43934 111.093 7.24317 111.035 7.06446C110.977 6.88575 110.824 6.75469 110.638 6.72518L105.028 5.83289L102.445 0.772841Z" stroke="black" stroke-linejoin="round"/>
</svg>
