<svg width="22" height="20" viewBox="0 0 22 20" fill="none" xmlns="http://www.w3.org/2000/svg">
<path d="M10.7337 18.0318L10.1923 18.5509L10.7338 19.1156L11.2751 18.5508L10.7337 18.0318ZM2.43864 9.38031L2.98 8.86125C2.9763 8.85738 2.97255 8.85355 2.96876 8.84977L2.43864 9.38031ZM1.51898 3.7127L2.18966 4.04839L2.18976 4.04818L1.51898 3.7127ZM9.37889 2.43746L8.84858 2.96782L8.84873 2.96796L9.37889 2.43746ZM10.7337 3.79143L10.2036 4.32192L10.7337 4.85175L11.2639 4.32192L10.7337 3.79143ZM12.0885 2.43746L12.6187 2.96796L12.6188 2.96782L12.0885 2.43746ZM19.9484 3.7127L20.6193 3.37727L20.6192 3.37721L19.9484 3.7127ZM19.0297 9.37771L18.4992 8.84746C18.4955 8.85117 18.4919 8.85492 18.4882 8.8587L19.0297 9.37771ZM11.2751 17.5128L2.98 8.86125L1.89727 9.89937L10.1923 18.5509L11.2751 17.5128ZM2.96876 8.84977C2.35115 8.23265 1.94352 7.43673 1.80368 6.57492L0.323042 6.81518C0.513343 7.98795 1.06806 9.07105 1.90852 9.91084L2.96876 8.84977ZM1.80368 6.57492C1.66383 5.7131 1.79888 4.82914 2.18966 4.04839L0.848302 3.37701C0.316516 4.43947 0.132741 5.6424 0.323042 6.81518L1.80368 6.57492ZM2.18976 4.04818C2.48445 3.45898 2.91492 2.94823 3.4457 2.55802L2.55722 1.34947C1.83495 1.88045 1.24919 2.57545 0.8482 3.37721L2.18976 4.04818ZM3.4457 2.55802C3.97649 2.16781 4.59239 1.9093 5.24267 1.80379L5.00245 0.323153C4.11758 0.46672 3.27948 0.818486 2.55722 1.34947L3.4457 2.55802ZM5.24267 1.80379C5.89296 1.69829 6.559 1.74881 7.18593 1.95119L7.64673 0.523718C6.79364 0.24833 5.88732 0.179587 5.00245 0.323153L5.24267 1.80379ZM7.18593 1.95119C7.81286 2.15356 8.38273 2.50201 8.84858 2.96782L9.90919 1.9071C9.27528 1.27326 8.49983 0.799107 7.64673 0.523718L7.18593 1.95119ZM8.84873 2.96796L10.2036 4.32192L11.2639 3.26093L9.90905 1.90696L8.84873 2.96796ZM11.2639 4.32192L12.6187 2.96796L11.5584 1.90696L10.2036 3.26093L11.2639 4.32192ZM12.6188 2.96782C13.0847 2.50201 13.6546 2.15357 14.2815 1.95119L13.8207 0.523718C12.9676 0.799107 12.1922 1.27326 11.5582 1.9071L12.6188 2.96782ZM14.2815 1.95119C14.9084 1.74881 15.5745 1.69829 16.2248 1.80379L16.465 0.323153C15.5801 0.179587 14.6738 0.24833 13.8207 0.523718L14.2815 1.95119ZM16.2248 1.80379C16.875 1.9093 17.4909 2.16781 18.0217 2.55802L18.9102 1.34947C18.1879 0.818486 17.3499 0.46672 16.465 0.323153L16.2248 1.80379ZM18.0217 2.55802C18.5525 2.94823 18.983 3.45898 19.2777 4.04818L20.6192 3.37721C20.2182 2.57545 19.6325 1.88045 18.9102 1.34947L18.0217 2.55802ZM19.2776 4.04813C19.6679 4.8286 19.8027 5.71207 19.663 6.57342L21.1437 6.81356C21.3338 5.64148 21.1503 4.43929 20.6193 3.37727L19.2776 4.04813ZM19.663 6.57342C19.5233 7.43477 19.1162 8.23034 18.4992 8.84746L19.5601 9.90796C20.3996 9.06822 20.9536 7.98565 21.1437 6.81356L19.663 6.57342ZM18.4882 8.8587L10.1923 17.5128L11.2751 18.5508L19.5711 9.89672L18.4882 8.8587Z" fill="black"/>
</svg>
