<svg width="30" height="30" viewBox="0 0 30 30" fill="none" xmlns="http://www.w3.org/2000/svg">
<path d="M21.5455 7H8.45455C7.65091 7 7 7.65091 7 8.45455V21.5455C7 22.3491 7.65091 23 8.45455 23H21.5455C22.3491 23 23 22.3491 23 21.5455V8.45455C23 7.65091 22.3491 7 21.5455 7ZM20.4851 19.3636H16.1716V19.1215L17.1818 18.2327V13.16L14.7011 19.3636H14.3135L11.5455 13.1113V17.5382L12.8109 19.1215V19.3636H9.51491V19.1215L10.8233 17.5382V12.2713L9.66036 10.8175C9.66036 10.8175 9.66036 10.6073 9.66036 10.64H12.8429L15.3149 15.9876L17.4473 10.64H20.4684V10.8175L19.3636 11.7462V18.2327L20.4851 19.1215V19.3636Z" fill="#888888"/>
</svg>
