<svg width="30" height="30" viewBox="0 0 30 30" fill="none" xmlns="http://www.w3.org/2000/svg">
<path d="M21.5455 7H8.45455C7.65091 7 7 7.65091 7 8.45455V21.5455C7 22.3491 7.65091 23 8.45455 23H21.5455C22.3491 23 23 22.3491 23 21.5455V8.45455C23 7.65091 22.3491 7 21.5455 7ZM12.0575 20.0909H9.912V13.1876H12.0575V20.0909ZM10.9629 12.2007C10.2713 12.2007 9.712 11.64 9.712 10.9498C9.712 10.2596 10.272 9.69964 10.9629 9.69964C11.6524 9.69964 12.2131 10.2604 12.2131 10.9498C12.2131 11.64 11.6524 12.2007 10.9629 12.2007ZM20.0938 20.0909H17.9498V16.7338C17.9498 15.9331 17.9353 14.9033 16.8349 14.9033C15.7185 14.9033 15.5469 15.7753 15.5469 16.6756V20.0909H13.4029V13.1876H15.4611V14.1309H15.4902C15.7767 13.5884 16.4764 13.016 17.52 13.016C19.6924 13.016 20.0938 14.4458 20.0938 16.3047V20.0909Z" fill="white"/>
</svg>
