<svg width="30" height="30" viewBox="0 0 30 30" fill="none" xmlns="http://www.w3.org/2000/svg">
<path d="M11.6654 7C9.0927 7 7 9.09464 7 11.668V18.3346C7 20.9073 9.09464 23 11.668 23H18.3346C20.9073 23 23 20.9054 23 18.332V11.6654C23 9.0927 20.9054 7 18.332 7H11.6654ZM19.6667 9.66667C20.0347 9.66667 20.3333 9.96533 20.3333 10.3333C20.3333 10.7013 20.0347 11 19.6667 11C19.2987 11 19 10.7013 19 10.3333C19 9.96533 19.2987 9.66667 19.6667 9.66667ZM15 11C17.206 11 19 12.794 19 15C19 17.206 17.206 19 15 19C12.794 19 11 17.206 11 15C11 12.794 12.794 11 15 11ZM15 12.3333C14.2928 12.3333 13.6145 12.6143 13.1144 13.1144C12.6143 13.6145 12.3333 14.2928 12.3333 15C12.3333 15.7072 12.6143 16.3855 13.1144 16.8856C13.6145 17.3857 14.2928 17.6667 15 17.6667C15.7072 17.6667 16.3855 17.3857 16.8856 16.8856C17.3857 16.3855 17.6667 15.7072 17.6667 15C17.6667 14.2928 17.3857 13.6145 16.8856 13.1144C16.3855 12.6143 15.7072 12.3333 15 12.3333Z" fill="white"/>
</svg>
