<svg width="30" height="30" viewBox="0 0 30 30" fill="none" xmlns="http://www.w3.org/2000/svg">
<path d="M15 8C12.424 8 9.08053 8.64543 9.08053 8.64543L9.07212 8.65505C7.89887 8.84269 7 9.85085 7 11.0769V14.7692V14.7704V18.4615V18.4627C7.00114 19.0483 7.211 19.6143 7.59188 20.059C7.97275 20.5038 8.49971 20.7982 9.07813 20.8894L9.08053 20.893C9.08053 20.893 12.424 21.5397 15 21.5397C17.576 21.5397 20.9195 20.893 20.9195 20.893L20.9207 20.8918C21.4997 20.8008 22.0273 20.5062 22.4084 20.0609C22.7896 19.6156 22.9994 19.0489 23 18.4627V18.4615V14.7704V14.7692V11.0769C22.9991 10.4912 22.7894 9.92489 22.4085 9.47988C22.0276 9.03487 21.5005 8.74028 20.9219 8.64904L20.9195 8.64543C20.9195 8.64543 17.576 8 15 8ZM13.1538 11.9375L18.0769 14.7692L13.1538 17.601V11.9375Z" fill="#888888"/>
</svg>
