<svg width="30" height="30" viewBox="0 0 30 30" fill="none" xmlns="http://www.w3.org/2000/svg">
<path d="M21.5455 7H8.45455C7.65091 7 7 7.65091 7 8.45455V21.5455C7 22.3491 7.65091 23 8.45455 23H15.7273V16.4545H13.5455V14.2727H15.7273V13.1011C15.7273 10.8829 16.808 9.90909 18.6516 9.90909C19.5345 9.90909 20.0015 9.97455 20.2225 10.0044V12.0909H18.9651C18.1825 12.0909 17.9091 12.504 17.9091 13.3404V14.2727H20.2029L19.8916 16.4545H17.9091V23H21.5455C22.3491 23 23 22.3491 23 21.5455V8.45455C23 7.65091 22.3484 7 21.5455 7Z" fill="white"/>
</svg>
