<svg width="30" height="30" viewBox="0 0 30 30" fill="none" xmlns="http://www.w3.org/2000/svg">
<path d="M23 9.53951C22.4111 9.80103 21.7785 9.97703 21.1145 10.0564C21.7926 9.65027 22.3126 9.00722 22.5575 8.24048C21.9237 8.61646 21.221 8.88968 20.4727 9.03737C19.8739 8.39924 19.021 8.00049 18.0771 8.00049C16.2642 8.00049 14.7947 9.47059 14.7947 11.2828C14.7947 11.54 14.8243 11.7911 14.8797 12.0305C12.1518 11.8939 9.7334 10.5869 8.11377 8.60047C7.83194 9.08537 7.6701 9.64904 7.6701 10.2515C7.6701 11.3899 8.24915 12.3948 9.12973 12.9831C8.59191 12.9658 8.08547 12.8181 7.64302 12.5726C7.64302 12.5868 7.64302 12.5997 7.64302 12.6138C7.64302 14.2046 8.77406 15.5313 10.2762 15.8322C10.0011 15.9073 9.71063 15.9473 9.41095 15.9473C9.19988 15.9473 8.99374 15.9263 8.79375 15.8888C9.21158 17.1927 10.4238 18.1423 11.8601 18.1687C10.7371 19.0493 9.32173 19.5742 7.78332 19.5742C7.51872 19.5742 7.25719 19.5588 6.99997 19.528C8.45284 20.4591 10.1777 21.0025 12.0318 21.0025C18.0697 21.0025 21.3705 16.0008 21.3705 11.6631C21.3705 11.521 21.3674 11.3794 21.3613 11.2385C22.0031 10.7752 22.56 10.1973 23 9.53951Z" fill="#888888"/>
</svg>
