<svg width="10" height="10" viewBox="0 0 10 10" fill="none" xmlns="http://www.w3.org/2000/svg">
<g clip-path="url(#clip0_3469_21986)">
<path d="M9.43395 0.478705L7.47655 0.0269991C7.26388 -0.0219357 7.04555 0.0891086 6.95897 0.288612L6.05556 2.39657C5.97651 2.58102 6.02921 2.79746 6.18543 2.92356L7.32598 3.85709C6.64843 5.30066 5.46458 6.50145 3.99089 7.19218L3.05737 6.05162C2.92938 5.89541 2.71482 5.84271 2.53037 5.92176L0.422414 6.82517C0.221029 6.91363 0.109984 7.13195 0.158919 7.34463L0.610625 9.30202C0.657678 9.50529 0.83836 9.65209 1.05104 9.65209C5.87112 9.65209 9.78402 5.74672 9.78402 0.919118C9.78402 0.708322 9.6391 0.525758 9.43395 0.478705Z" fill="white"/>
</g>
<defs>
<clipPath id="clip0_3469_21986">
<rect x="0.148071" y="0.0162354" width="9.63639" height="9.63639" fill="white"/>
</clipPath>
</defs>
</svg>
