<svg width="17" height="14" viewBox="0 0 17 14" fill="none" xmlns="http://www.w3.org/2000/svg">
<path fill-rule="evenodd" clip-rule="evenodd" d="M0.167969 4.3083H0V2.8083V2.50012C0 1.11941 1.11929 0.00012207 2.5 0.00012207H5.28789C6.03427 0.00012207 6.76111 0.238724 7.36228 0.68109L8.61124 1.60014L10.2532 2.80838H14.668H16.168V4.30838V11.7738V13.2738H14.668H1.66797H0.167969V11.7738V4.30838V4.3083ZM3 2.8083H2.89376H2.5H1.5V2.50012C1.5 1.94784 1.94772 1.50012 2.5 1.50012H5.28789C5.7144 1.50012 6.12973 1.63647 6.47326 1.88925L7.72222 2.8083H5.79697H5.28789H3ZM1.66797 4.30838H14.668V11.7738H1.66797V4.30838Z" fill="#6DC896"/>
</svg>
